<svg xmlns="http://www.w3.org/2000/svg" viewBox="0 0 426.68 512"><defs><style>.a{fill:#fff;}</style></defs><title>notification</title><path class="a" d="M467.82,431.85l-36.65-61.06a181.43,181.43,0,0,1-25.84-93.31V224c0-82.33-67-149.33-149.33-149.33S106.67,141.67,106.67,224v53.48a181.43,181.43,0,0,1-25.84,93.31L44.18,431.85A10.66,10.66,0,0,0,53.33,448H458.67a10.66,10.66,0,0,0,9.15-16.15ZM72.17,426.67l26.94-44.91A202.56,202.56,0,0,0,128,277.48V224a128,128,0,0,1,256,0v53.48a202.81,202.81,0,0,0,28.86,104.28l27,44.91Z" transform="translate(-42.66 0)"/><path class="a" d="M256,0a42.72,42.72,0,0,0-42.67,42.67V85.33a10.67,10.67,0,1,0,21.34,0V42.67a21.33,21.33,0,1,1,42.66,0V85.33a10.67,10.67,0,0,0,21.34,0V42.67A42.72,42.72,0,0,0,256,0Z" transform="translate(-42.66 0)"/><path class="a" d="M302.17,431.94a10.68,10.68,0,0,0-18.44,10.79,32,32,0,1,1-55.42,0,10.68,10.68,0,1,0-18.43-10.79A53.29,53.29,0,0,0,256,512a53.29,53.29,0,0,0,46.17-80.06Z" transform="translate(-42.66 0)"/></svg>